<?xml version="1.0" standalone="no"?>
<!DOCTYPE svg PUBLIC "-//W3C//DTD SVG 20010904//EN"
 "http://www.w3.org/TR/2001/REC-SVG-20010904/DTD/svg10.dtd">
<svg version="1.0" xmlns="http://www.w3.org/2000/svg"
 width="252.000000pt" height="252.000000pt" viewBox="0 0 252.000000 252.000000"
 preserveAspectRatio="xMidYMid meet">
<metadata>
Created by potrace 1.14, written by Peter Selinger 2001-2017
</metadata>
<g transform="translate(0.000000,252.000000) scale(0.100000,-0.100000)"
fill="#000000" stroke="none">
<path d="M1220 2323 c-47 -49 -104 -119 -126 -158 -40 -67 -43 -70 -78 -69
-48 2 -174 75 -293 170 -51 41 -97 74 -103 74 -5 0 -24 -19 -41 -42 -59 -81
-97 -189 -134 -386 -30 -158 -40 -186 -69 -210 -29 -24 -96 -106 -140 -173
-42 -64 -92 -108 -160 -141 -25 -12 -45 -27 -43 -33 1 -5 36 -27 77 -47 41
-20 76 -43 78 -51 3 -14 -160 -177 -178 -177 -7 0 -10 -178 -10 -540 l0 -540
385 0 385 0 0 23 c0 52 111 239 174 295 20 17 33 32 28 32 -5 0 -29 -20 -54
-45 -28 -28 -55 -45 -69 -45 -42 0 -98 20 -128 46 -16 13 -43 29 -60 35 -17 6
-31 14 -31 18 0 5 36 27 80 51 83 45 153 98 170 131 8 14 -3 11 -47 -16 -65
-39 -89 -45 -78 -17 12 28 29 168 22 185 -5 13 -24 14 -124 10 -65 -2 -124 0
-131 5 -17 12 -8 31 84 175 75 117 79 144 22 139 -21 -2 -38 0 -38 4 0 3 20
49 45 101 42 89 43 95 22 89 -34 -10 -187 -20 -187 -12 0 3 7 49 15 101 16
101 43 195 75 268 24 54 22 54 170 -15 96 -45 114 -58 225 -166 l120 -117 128
-30 c70 -16 127 -32 127 -35 0 -3 -14 -13 -30 -22 -43 -24 -37 -38 15 -38 43
0 46 -2 98 -67 38 -48 74 -80 122 -107 61 -36 105 -79 93 -91 -2 -3 -31 2 -64
11 -76 21 -78 21 -83 9 -3 -5 -14 -18 -25 -27 -12 -10 -16 -17 -10 -18 5 0 15
5 22 12 9 9 23 8 59 -4 27 -9 67 -20 90 -23 29 -5 44 -13 48 -26 7 -22 -1 -20
105 -24 98 -2 184 -33 285 -102 80 -54 226 -205 212 -219 -6 -6 -60 18 -69 31
-4 5 -8 6 -8 1 0 -5 -10 0 -23 12 -30 29 -81 48 -147 56 l-55 7 41 -29 c58
-42 196 -211 237 -290 44 -85 77 -182 77 -227 0 -35 0 -35 45 -35 25 0 45 3
45 6 0 56 -98 269 -165 358 -24 33 -43 61 -41 63 2 2 47 -17 100 -41 53 -25
96 -41 96 -35 0 15 -80 170 -111 216 -18 26 -29 54 -29 77 0 178 -74 367 -191
487 -28 28 -49 52 -47 53 2 1 28 10 58 19 31 9 64 23 74 30 18 13 17 15 -13
36 -34 25 -128 138 -163 196 -21 36 -21 37 -3 73 13 27 20 67 23 145 5 121 2
124 -60 82 -20 -14 -43 -25 -52 -25 -8 0 -28 24 -45 54 -57 102 -196 222 -311
271 -25 10 -51 23 -58 29 -32 24 -122 240 -122 293 0 47 -40 27 -130 -64z
m116 -87 c13 -53 24 -101 24 -106 0 -6 -16 -10 -36 -10 l-37 0 8 78 c5 42 8
92 8 109 0 18 2 31 4 29 2 -2 15 -47 29 -100z m-69 12 c-3 -18 -9 -52 -12 -75
-5 -34 -11 -43 -27 -43 -18 0 -19 4 -13 38 6 34 43 112 53 112 2 0 2 -15 -1
-32z m-531 -57 c52 -43 127 -95 167 -115 l72 -36 105 11 c170 17 317 -1 427
-53 114 -53 211 -139 291 -254 26 -37 25 -38 -66 -78 l-64 -28 -151 11 c-84 6
-190 16 -237 21 -47 5 -130 13 -185 19 -84 9 -286 44 -449 78 l-38 8 1 229 c2
204 8 266 27 266 3 0 48 -35 100 -79z m1216 -572 c-2 -28 -22 -82 -54 -149
-53 -108 -73 -116 -44 -18 8 29 19 81 25 116 7 45 16 68 33 82 33 28 43 19 40
-31z m-324 -48 c-3 -9 -258 -311 -262 -311 -22 0 -310 139 -303 146 2 2 52
-10 111 -26 83 -23 112 -28 122 -19 8 6 44 58 80 115 l66 104 95 0 c54 0 93
-4 91 -9z m357 -197 c22 -31 57 -69 77 -86 21 -16 36 -34 33 -38 -8 -14 -112
-41 -129 -34 -25 10 -19 -4 22 -55 49 -59 98 -140 122 -201 21 -52 50 -185 50
-226 l0 -26 -32 22 c-73 48 -180 91 -257 102 l-79 12 -4 61 c-2 42 -10 70 -26
92 -42 59 -25 141 35 172 55 27 75 54 84 110 8 50 47 151 58 151 3 -1 24 -26
46 -56z m-305 35 c0 -6 -5 -19 -11 -30 -5 -11 -7 -28 -4 -39 13 -40 112 -78
130 -50 12 19 35 10 35 -14 0 -37 -23 -47 -112 -52 -46 -2 -114 -14 -152 -25
-66 -21 -156 -23 -186 -4 -6 4 28 36 77 73 48 36 110 85 138 109 47 41 85 55
85 32z m134 -30 c5 -5 8 -11 5 -13 -7 -8 -89 6 -89 15 0 19 63 18 84 -2z
m-205 -319 c41 -11 86 -30 99 -43 49 -45 67 -131 36 -175 -24 -34 -52 -28 -71
16 -26 62 -51 90 -127 141 -39 27 -78 56 -85 65 -12 14 -9 16 30 16 24 0 77
-9 118 -20z m-1343 -547 c-4 -36 -15 -90 -25 -120 l-18 -53 26 -7 c41 -12 160
-6 220 10 l54 15 56 -55 c31 -30 75 -66 99 -80 39 -23 43 -29 36 -52 -4 -14
-12 -51 -18 -81 l-12 -55 -324 0 -325 0 -3 218 c-1 120 2 225 7 234 9 17 181
90 215 92 17 1 18 -4 12 -66z m1841 26 c43 -12 49 -29 11 -29 -26 0 -88 29
-88 42 0 5 8 7 18 4 9 -2 36 -10 59 -17z"/>
<path d="M660 2167 c-16 -45 -26 -352 -12 -361 6 -3 26 8 44 26 18 18 54 51
81 72 26 21 45 41 42 44 -3 3 -28 -7 -56 -22 -28 -16 -53 -25 -56 -22 -8 8
-17 246 -9 246 3 0 46 -31 94 -69 104 -80 128 -95 137 -81 3 5 4 14 1 19 -5 7
-209 154 -243 174 -7 4 -15 -5 -23 -26z"/>
</g>
</svg>
